# xmcd
#
# Track frame offsets:
#	150
#	30336
#	50995
#	73096
#	91704
#	99267
#	109045
#	131405
#	155960
#	164794
#	185023
#	197954
#	224668
#	253118
#	269593
#	281952
#	300483
#
# Disc length: 4332 seconds
#
# Revision: 1
# Processed by: cddbd v1.5.2PL0 Copyright (c) Steve Scherf et al.
# Submitted via: EasyCDDAExtractor 16.0.8.2
#
DISCID=0d10ea11
DTITLE=Συλλογικός δίσκος - Παραλογές 2
DYEAR=2008
DGENRE=Παραδοσιακή
TTITLE0=Σαμίου Δόμνα - Κοράσιν ετραγούδαγε [Προποντίδα]
TTITLE1=Μαρτσάκης Αντώνης - Μιά κόρη συναπόβγαινε [Κρήτη]
TTITLE2=Χορωδία - Ξημέρωσε η Ανατολή [Προποντίδα]
TTITLE3=Κουσκούση Μαρία - Μιά κόρη Βρονταδούσαινα [Ρεΐς Ντερέ, Μ. Ασία]
TTITLE4=Γούμενος Λάμπρος - Ο Γιάννος και η Βαγγελιώ [Ήπειρος]
TTITLE5=Μπόγρη Σουλτάνα - Όσο 'ναι μάκρος του γιαλού [Προποντίδα]
TTITLE6=Δημούδης Βαγγέλης - Εγώ είμαι ορφανό παιδί (Ο κεραστής)[Αν. Ρωμυλία]
TTITLE7=Παπαδοπούλου Κατερίνα - Αρχοντογιός παντρεύεται [Προποντίδα]
TTITLE8=Ομάδα γυν από Καλαμωτή - Μιά γκαστρωμένη θέριζε [Καλαμωτή, Χίος]
TTITLE9=Σαμίου Δόμνα-χορωδία - Κόρη ξανθή τραγούδησε [Εύβοια]
TTITLE10=Μαρτσάκης Αντώνης - Ο βασιλιάς και ο Μαυριανός [Κρήτη]
TTITLE11=Τερλικκάς Μιχάλης - Η Αροαφνού [Κύπρος]
TTITLE12=Σαμίου Δόμνα - Η Ευγενούλα η μοσχονιά (Χάρος και λυγερή)[Θράκη]
TTITLE13=Χορωδία - Τρι άρχοντες καθόντανε [Σινασός, Καππαδοκία]
TTITLE14=Άνευ ερμηνευτού - Γιαρ γιαρ [οργανικό, Πόντος]
TTITLE15=Παπαδοπούλου Κατερίνα - Ένας κοντός κοντούτσικος [Μελί, Μ. Ασία]
TTITLE16=Σαμίου Δόμνα-χορωδία - Ένας κοντός κοντούτσικος [Σκιάθος]
EXTD=
EXTT0=
EXTT1=
EXTT2=
EXTT3=
EXTT4=
EXTT5=
EXTT6=
EXTT7=
EXTT8=
EXTT9=
EXTT10=
EXTT11=
EXTT12=
EXTT13=
EXTT14=
EXTT15=
EXTT16=
PLAYORDER=
